<svg width="248" height="76" viewBox="0 0 248 76" fill="none" xmlns="http://www.w3.org/2000/svg">
<path d="M0 35.3885V0.00439453H9.47241V34.9791C9.47241 44.0411 15.9388 49.7798 26.0028 49.7798C36.0667 49.7798 42.4881 44.0411 42.4881 34.9791V0.00439453H51.9595V35.3885C51.9595 49.5516 41.8505 58.6552 26.0017 58.6552C10.1529 58.6552 0 49.5516 0 35.3885Z" fill="white"/>
<path d="M88.2041 35.8897C88.2041 23.093 98.132 13.1201 111.429 13.1201C124.726 13.1201 134.654 23.093 134.654 35.8897C134.654 48.6864 124.726 58.6593 111.429 58.6593C98.132 58.6593 88.2041 48.6864 88.2041 35.8897ZM111.428 50.1943C114.26 50.2128 117.033 49.39 119.397 47.8304C121.761 46.2707 123.608 44.0443 124.705 41.4334C125.801 38.8226 126.098 35.9449 125.557 33.1652C125.017 30.3855 123.663 27.8289 121.667 25.8195C119.672 23.8102 117.125 22.4386 114.349 21.8786C111.573 21.3187 108.693 21.5956 106.075 22.6742C103.456 23.7528 101.217 25.5846 99.6413 27.9374C98.0653 30.2901 97.2233 33.0578 97.2222 35.8897C97.1683 37.7745 97.4982 39.6505 98.1918 41.4038C98.8854 43.1572 99.9282 44.7512 101.257 46.0891C102.585 47.427 104.172 48.4808 105.921 49.1865C107.669 49.8922 109.543 50.2351 111.428 50.1943Z" fill="white"/>
<path d="M140.59 14.031H149.607V19.9959C152.84 15.8518 157.759 13.1201 165.181 13.1201C177.614 13.1201 187.131 22.6836 187.131 36.118C187.131 49.5523 177.614 58.6593 165.181 58.6593C157.759 58.6593 152.84 55.9276 149.607 51.7835V75.9644H140.59V14.031ZM164.088 50.5532C172.514 50.5532 178.114 44.1779 178.114 36.118C178.114 28.058 172.517 21.2262 164.088 21.2262C155.659 21.2262 149.653 28.0569 149.653 36.118C149.611 38.025 149.956 39.9208 150.667 41.691C151.378 43.4612 152.439 45.0691 153.788 46.418C155.137 47.7668 156.745 48.8285 158.515 49.5392C160.285 50.2499 162.181 50.5949 164.088 50.5532Z" fill="white"/>
<path d="M227.746 31.4729C231.523 31.364 235.281 32.0626 238.767 33.5219V31.1536C238.767 25.6881 234.349 21.59 227.564 21.59C225.17 21.6737 222.82 22.2556 220.663 23.2985C218.507 24.3414 216.592 25.8225 215.04 27.6471L209.349 21.9994C211.595 19.2938 214.396 17.1012 217.562 15.5694C220.728 14.0377 224.185 13.2023 227.701 13.1196C239.993 13.1196 247.785 19.7682 247.785 30.3787V57.7479H238.95V52.1013C236.263 56.1993 231.208 58.6588 225.335 58.6588C215.862 58.6588 208.44 53.877 208.44 45.3155C208.438 37.1195 216.271 31.4729 227.746 31.4729ZM226.648 51.2826C233.753 51.2826 238.762 46.4097 238.762 40.4438C235.351 38.9996 231.674 38.2859 227.97 38.3487C222.277 38.3487 217.544 40.2616 217.544 44.9973C217.545 48.9603 221.508 51.2826 226.653 51.2826H226.648Z" fill="white"/>
<path d="M87.4582 49.0017C85.2016 49.9323 82.7942 50.4436 80.3542 50.5108C75.8896 50.5108 73.2007 48.1874 73.2007 43.5395V21.6787H86.9962V14.0292H73.1031V0H64.3232V14.0292H56.4004V21.6787H64.1816V44.6348C64.1816 53.5157 69.9116 58.6618 79.0723 58.6618C82.3588 58.7071 85.6177 58.0563 88.6347 56.7522L87.4582 49.0017Z" fill="white"/>
<path d="M202.177 14.0355V57.7473H193.166V14.0234L197.666 14.03L202.177 14.0355Z" fill="white"/>
<path d="M202.112 0.00439453C202.149 0.00439453 202.178 0.0252466 202.178 0.0504888V8.94014C202.178 8.96538 202.149 8.98623 202.112 8.98623C199.81 8.98623 197.601 8.0715 195.973 6.44327C194.345 4.81503 193.43 2.60667 193.43 0.304003V0.00768518L202.112 0.00439453Z" fill="white"/>
</svg>
