<svg width="363" height="363" viewBox="0 0 363 363" fill="none" xmlns="http://www.w3.org/2000/svg">
<path d="M181.07 0C81.07 0 0 81.07 0 181.07C0 206.45 5.04 230.69 14.58 252.56C27.66 282.56 101.19 220.77 111.8 211.64C112.44 211.09 113.43 211.25 113.85 211.99C115.41 214.72 119.46 221.08 127.39 229.01C137.92 239.54 144.82 244.77 147.56 246.68C148.24 247.16 148.34 248.12 147.76 248.72C138.14 258.69 72.32 326.68 109.24 347.34C123.66 355.41 155.55 362.15 181.07 362.15C281.07 362.15 362.14 281.08 362.14 181.08C362.14 80.78 281.37 0 181.07 0ZM231.35 171.82L212.87 190.3C211.63 191.54 210.8 193.11 210.53 194.73L203.29 238.54C203.02 240.16 202.19 241.73 200.95 242.97L198.79 245.13C195.91 248.01 191.62 248.38 189.24 245.96L174.35 230.85C171.96 228.42 167.65 228.81 164.77 231.71L157.33 239.21C157.33 239.21 154.31 242.38 136.8 224.87C119.32 207.39 122.71 204.1 122.71 204.1L129.82 196.99C132.69 194.12 133.07 189.86 130.68 187.47L116.39 173.18C114 170.79 114.38 166.52 117.25 163.66L119.45 161.46C120.69 160.22 122.26 159.39 123.88 159.12L167.69 151.88C169.31 151.61 170.88 150.78 172.12 149.54L190.6 131.06C206.68 114.98 231.54 114.19 241.94 114.66C244.89 114.79 247.02 116.91 247.18 119.86C247.75 130.43 247.25 155.93 231.35 171.82Z" fill="#311763"/>
<path d="M196.6 146.96C191.39 152.17 191.39 160.62 196.6 165.83C201.81 171.04 210.26 171.04 215.47 165.83C220.68 160.62 220.68 152.17 215.47 146.96C210.26 141.75 201.81 141.75 196.6 146.96Z" fill="#311763"/>
</svg>
